<svg id="Laag_1" data-name="Laag 1" xmlns="http://www.w3.org/2000/svg" viewBox="0 0 180.3 187.1">
  <g id="Laag_3" data-name="Laag 3">
    <path id="Meteorite" d="M273.7,380.2a21.4,21.4,0,0,1-39.3-11.7,21,21,0,0,1,4.9-13.6,81.1,81.1,0,0,0-29.6-5.6c-25.4,0-48.1,11.8-63.6,30.5l1.2,1.1c4.5,4.5,5.9,10.5,3,13.4s-8.3,1.6-12.7-2.4c-7.9,13.6-8.4,30.2-12.5,46.9-9.4,38.4,37.9,89.6,84.6,89.6a32.9,32.9,0,0,1-.9-7.9c0-9.8,4-19.1,8.4-17.8,24.1,7.4,8.4,8,8.4,17.8a33.4,33.4,0,0,1-.6,6.5c39.4-7.6,80.6-45.2,69.3-88.2C288.6,417.1,286.6,395.9,273.7,380.2Zm-96.6,99.2c-9.3,0-16.9-7-16.9-15.7s7.5-15.7,16.9-15.7,16.9,7,16.9,15.7S186.4,479.4,177.1,479.4Zm21.1-82c-4.9,0-8.8-4.6-8.8-10.3s3.9-10.3,8.8-10.3,8.8,4.6,8.8,10.3S203.1,397.4,198.2,397.4Zm65.9,79.7c-5.7,0-10.3-6-10.3-13.4s4.6-13.4,10.3-13.4,10.3,6,10.3,13.4S269.8,477.1,264.1,477.1Z" transform="translate(-119.9 -345.3)" fill="#878787" stroke="#dcdcdc" stroke-miterlimit="10" stroke-width="8"/>
  </g>
</svg>
